<svg id="Layer_1" data-name="Layer 1" xmlns="http://www.w3.org/2000/svg" version="1.1" viewBox="0 0 500 500">
  <defs>
    <style>
      .cls-1 {
        fill: #005f63;
      }

      .cls-1, .cls-2 {
        stroke-width: 0px;
      }

      .cls-2 {
        fill: #fff;
      }
    </style>
  </defs>
  <rect class="cls-1" y="0" width="502.9" height="502.9"></rect>
  <circle class="cls-2" cx="250" cy="250" r="250"></circle>
  <path class="cls-1" d="M249.5,218.6c30.4-6.2,54.8,3.5,73.3,27.8,11,14.5,24.5,23.5,42.2,27.4,33.8,7.6,56.8,39.5,55.2,75-1.5,34.6-27.6,63.6-62,68-8.5,1.1-17.6,1-26-.7-25.8-5.3-48.3.4-68.7,17-31.2,25.3-74.7,21.6-100.2-7.7-26.8-30.9-23.4-78.7,8.1-104.6,14-11.5,22.2-25.6,25.9-43.2,4.2-20.1,13.4-37.4,31-48.7,6.5-4.2,14.1-6.9,21.2-10.4h0Z" data-index="0"></path>
  <path class="cls-1" d="M343,100.1c4.5,23.5,2.2,47.7-12.5,69.5-10.1,15.1-23.9,24.2-42.8,21.6-14.8-2.1-24.9-11.2-32.6-23.6-19.7-31.6-14.9-80.2,10.4-105,17.5-17.1,41.6-16.9,58.7.6,9.6,9.7,15.1,21.8,18.7,36.8h0Z" data-index="1"></path>
  <path class="cls-1" d="M111,154.9c-2.8-14.1-3.2-28,1.7-41.6,7.8-21.9,28-32.6,50-26.1,23.2,6.8,38.3,23.3,48.7,44.8,8.5,17.7,11.9,36.4,6.6,55.8-6.9,25.5-29.1,37.5-53.8,29.2-21.5-7.2-35.6-22.9-45.6-42.9-3.1-6.1-5.1-12.7-7.6-19.2h0Z" data-index="2"></path>
  <path class="cls-1" d="M51.9,272c-3.1-14-3-27.6,5.1-40.1,9.6-14.9,27.2-20.8,46.1-14.9,24.9,7.6,41.3,25.1,51.8,48.7,4.4,10,6.5,20.6,5.5,31.6-2,24.4-20.7,40-44.6,36.7-23-3.2-39.6-16.7-52.1-35.7-5.2-7.9-8.7-17-12.8-25.7.5-.3.9-.5,1.2-.7h0Z" data-index="3"></path>
  <path class="cls-1" d="M448.4,175.4c4.8,29.1-.8,55.4-21.1,77.5-8.2,8.9-18.5,14.2-30.7,14.5-16.4.4-30.3-10-37.5-27.2-12.1-29.2-4.2-68.2,18.4-89.9,8.7-8.3,18.8-13.8,31.2-13.3,17,.7,27.8,10.6,34.9,25.3,1.9,4.1,3.2,8.7,4.8,13.2h0Z" data-index="4"></path>
</svg>