<?xml version="1.0" encoding="UTF-8"?>
<svg id="Layer_1" data-name="Layer 1" xmlns="http://www.w3.org/2000/svg" version="1.1" viewBox="0 0 500 500">
  <defs>
    <style>
      .cls-1 {
        fill: #005f63;
      }

      .cls-1, .cls-2 {
        stroke-width: 0px;
      }

      .cls-2 {
        fill: #fff;
      }
    </style>
  </defs>
  <circle class="cls-1" cx="250" cy="250" r="250"/>
  <path class="cls-2" d="M249.5,218.6c30.41-6.17,54.84,3.52,73.28,27.81,11.01,14.49,24.52,23.5,42.19,27.42,33.79,7.64,56.77,39.46,55.22,75.01-1.54,34.57-27.61,63.65-61.98,67.96-8.49,1.08-17.57.98-25.97-.68-25.78-5.29-48.27.39-68.74,17.04-31.18,25.26-74.72,21.64-100.21-7.74-26.84-30.85-23.36-78.73,8.11-104.58,14-11.46,22.2-25.56,25.87-43.18,4.25-20.07,13.42-37.41,30.99-48.67,6.47-4.21,14.1-6.95,21.24-10.38Z"/>
  <path class="cls-2" d="M342.95,100.11c4.54,23.5,2.22,47.69-12.45,69.53-10.14,15.08-23.85,24.19-42.77,21.64-14.77-2.06-24.91-11.16-32.63-23.6-19.69-31.63-14.87-80.2,10.43-104.98,17.47-17.14,41.61-16.94,58.7.59,9.65,9.69,15.06,21.84,18.73,36.82Z"/>
  <path class="cls-2" d="M110.96,154.95c-2.8-14.1-3.19-28.01,1.74-41.62,7.82-21.93,28-32.61,50.01-26.05,23.17,6.85,38.33,23.31,48.66,44.75,8.49,17.72,11.87,36.43,6.57,55.82-6.95,25.46-29.06,37.51-53.77,29.18-21.53-7.25-35.62-22.91-45.57-42.89-3.09-6.07-5.12-12.73-7.63-19.19Z"/>
  <path class="cls-2" d="M51.88,271.97c-3.09-14-2.99-27.61,5.12-40.05,9.56-14.88,27.22-20.76,46.05-14.88,24.91,7.64,41.32,25.07,51.75,48.67,4.44,9.99,6.47,20.56,5.5,31.63-2.03,24.38-20.66,40.05-44.6,36.72-22.98-3.23-39.58-16.74-52.13-35.74-5.21-7.93-8.69-17.04-12.84-25.66.48-.29.87-.49,1.16-.69Z"/>
  <path class="cls-2" d="M448.37,175.42c4.83,29.08-.77,55.42-21.14,77.46-8.21,8.91-18.54,14.2-30.7,14.49-16.41.39-30.31-9.99-37.46-27.22-12.07-29.18-4.25-68.25,18.44-89.9,8.69-8.32,18.83-13.81,31.18-13.32,16.99.69,27.8,10.58,34.85,25.26,1.93,4.11,3.19,8.71,4.83,13.22Z"/>
</svg>